<svg width="15" height="14" viewBox="0 0 15 14" fill="none" xmlns="http://www.w3.org/2000/svg">
<path d="M15 13.3209C15 13.3209 15 10.8519 13.1281 9.95461C11.9434 9.38663 12.3999 9.82114 10.9454 9.24006C9.49114 8.65989 9.14662 8.47019 9.14662 8.47019L9.13373 7.13934C9.13373 7.13934 9.6784 6.74097 9.84832 5.48239C10.1884 5.57724 10.3035 5.09824 10.322 4.79223C10.3421 4.49661 10.5231 3.5752 10.1071 3.65741C10.1921 3.04223 10.2589 2.486 10.2289 2.19151C10.1249 1.15808 9.38333 0.0788166 7.51142 0C5.92005 0.0788166 4.88695 1.15876 4.78265 2.19219C4.75265 2.48668 4.81382 3.04246 4.8989 3.65876C4.48313 3.57543 4.66219 4.49865 4.68047 4.79404C4.70062 5.10005 4.81312 5.5804 5.15389 5.48555C5.32311 6.74435 5.86778 7.14566 5.86778 7.14566L5.85419 8.48374C5.85419 8.48374 5.50967 8.68632 4.0554 9.26649C2.60114 9.84779 3.05722 9.38686 1.87248 9.95461C0.000104196 10.8523 0.000104164 13.3209 0.000104164 13.3209C-0.000130205 13.3214 0.000104164 13.322 0.000104164 13.3225C0.000104164 13.6967 0.314863 14 0.703213 14H14.2967C14.685 14 14.9998 13.6967 14.9998 13.3225C14.9998 13.3218 15 13.3214 15 13.3209Z" fill="white"/>
</svg>
