<svg width="25" height="25" viewBox="0 0 25 25" fill="none" xmlns="http://www.w3.org/2000/svg">
<path d="M16.4638 12.9902C16.4638 15.1848 14.6846 16.964 12.49 16.964C10.2954 16.964 8.51616 15.1848 8.51616 12.9902C8.51616 10.7956 10.2954 9.01635 12.49 9.01635C14.6846 9.01635 16.4638 10.7956 16.4638 12.9902Z" fill="white"/>
<path d="M19.2012 0.980414H5.77844C2.85671 0.980414 0.480006 3.35712 0.480006 6.27885V19.7016C0.480006 22.6233 2.85671 25 5.77844 25H19.2012C22.1229 25 24.4996 22.6233 24.4996 19.7016V6.27885C24.4996 3.35712 22.1229 0.980414 19.2012 0.980414ZM12.4898 19.6133C8.83781 19.6133 5.86675 16.6422 5.86675 12.9902C5.86675 9.33822 8.83781 6.36716 12.4898 6.36716C16.1418 6.36716 19.1128 9.33822 19.1128 12.9902C19.1128 16.6422 16.1418 19.6133 12.4898 19.6133ZM20.0842 6.72039C19.3526 6.72039 18.7596 6.12742 18.7596 5.39578C18.7596 4.66414 19.3526 4.07117 20.0842 4.07117C20.8159 4.07117 21.4088 4.66414 21.4088 5.39578C21.4088 6.12742 20.8159 6.72039 20.0842 6.72039Z" fill="white"/>
</svg>
