<svg width="24" height="24" viewBox="0 0 24 24" fill="none" xmlns="http://www.w3.org/2000/svg">
<g clip-path="url(#clip0_0_32)">
<path d="M14.8281 9.17164C14.6331 8.97664 14.316 8.97664 14.121 9.17164C13.926 9.36664 13.926 9.68464 14.121 9.87866C14.6871 10.4447 15 11.1977 15 11.9997C15 13.6536 13.654 14.9997 12 14.9997C11.1981 14.9997 10.4451 14.6877 9.87905 14.1207C9.68405 13.9257 9.36703 13.9257 9.17203 14.1207C8.97703 14.3147 8.97703 14.6327 9.17203 14.8277C9.92601 15.5837 10.931 15.9997 12 15.9997C14.206 15.9997 16 14.2057 16 11.9997C16 10.9306 15.5841 9.92563 14.8281 9.17164Z" fill="#3C3A36"/>
<path d="M12.6971 8.06863C12.47 8.02865 12.238 7.99963 12.0001 7.99963C9.79408 7.99963 8.00008 9.79363 8.00008 11.9996C8.00008 12.2376 8.02909 12.4696 8.07006 12.6966C8.11304 12.9386 8.32408 13.1096 8.56108 13.1096C8.59009 13.1096 8.61906 13.1076 8.64906 13.1016C8.92005 13.0536 9.10206 12.7936 9.05406 12.5226C9.02308 12.3526 9.00006 12.1796 9.00006 11.9996C9.00006 10.3456 10.3461 8.99962 12.0001 8.99962C12.1801 8.99962 12.3531 9.02263 12.523 9.05263C12.7891 9.10663 13.0541 8.91862 13.1021 8.64763C13.1501 8.37665 12.9681 8.11663 12.6971 8.06863Z" fill="#3C3A36"/>
<path d="M23.881 11.6766C23.768 11.5426 21.063 8.38564 17.332 6.45266C17.09 6.32567 16.785 6.42167 16.658 6.66767C16.531 6.91269 16.627 7.21466 16.873 7.34169C19.747 8.82968 22.043 11.1517 22.828 11.9997C21.636 13.2907 16.945 17.9997 12 17.9997C10.322 17.9997 8.63102 17.5947 6.97202 16.7947C6.72602 16.6737 6.42504 16.7787 6.30504 17.0277C6.18405 17.2757 6.28905 17.5747 6.53805 17.6947C8.33303 18.5617 10.171 18.9997 12.0001 18.9997C18.1611 18.9997 23.6511 12.5957 23.8821 12.3227C24.04 12.1366 24.039 11.8636 23.881 11.6766Z" fill="#3C3A36"/>
<path d="M15.281 5.57563C14.143 5.19262 13.039 4.99963 12 4.99963C5.839 4.99963 0.349006 11.4036 0.118006 11.6766C-0.028009 11.8486 -0.040009 12.0987 0.090022 12.2856C0.159022 12.3846 1.81202 14.7316 4.67701 16.6346C4.762 16.6916 4.85701 16.7186 4.95301 16.7186C5.11403 16.7186 5.27303 16.6406 5.36903 16.4936C5.52203 16.2647 5.45903 15.9536 5.22901 15.8016C3.12503 14.4026 1.68503 12.7136 1.14602 12.0267C2.29703 10.7766 7.01903 5.99966 12 5.99966C12.931 5.99966 13.928 6.17568 14.962 6.52265C15.224 6.61663 15.508 6.47165 15.595 6.20863C15.683 5.94665 15.543 5.66366 15.281 5.57563Z" fill="#3C3A36"/>
<path d="M20.853 3.14662C20.658 2.95162 20.341 2.95162 20.146 3.14662L3.14608 20.1466C2.95108 20.3416 2.95108 20.6586 3.14608 20.8536C3.2441 20.9506 3.37207 20.9996 3.50008 20.9996C3.6281 20.9996 3.75607 20.9506 3.8531 20.8536L20.853 3.85363C21.048 3.65863 21.048 3.34162 20.853 3.14662Z" fill="#3C3A36"/>
</g>
<defs>
<clipPath id="clip0_0_32">
<rect width="24" height="24" fill="white"/>
</clipPath>
</defs>
</svg>
